<?xml version="1.0" encoding="UTF-8"?>
<svg version="1.1" xmlns="http://www.w3.org/2000/svg" width="1337" height="1337">
<path d="M0 0 C441.21 0 882.42 0 1337 0 C1337 441.21 1337 882.42 1337 1337 C895.79 1337 454.58 1337 0 1337 C0 895.79 0 454.58 0 0 Z " fill="#000000" transform="translate(0,0)"/>
<path d="M0 0 C60.06 0 120.12 0 182 0 C184.86912139 12.6241341 187.65504323 25.00515149 189.91015625 37.71484375 C190.82836771 42.49335758 192.095953 47.15202231 193.37886047 51.84381104 C195.64117966 60.22198709 197.42019602 68.70665289 199.25 77.1875 C199.83920282 79.89940056 200.4296662 82.61102472 201.0202179 85.32263184 C201.42106698 87.16344924 201.82152832 89.00435113 202.22160339 90.84533691 C204.21881446 100.02929841 206.26411841 109.20234454 208.3125 118.375 C210.51522754 128.24433614 212.71775768 138.11282478 214.72192383 148.02490234 C215.49877093 151.82142151 216.38912126 155.57310633 217.34765625 159.328125 C219.2592144 166.89626239 220.90293664 174.5191768 222.55929565 182.14627075 C223.53878917 186.65451951 224.5251029 191.16127414 225.51171875 195.66796875 C225.71481155 196.59584702 225.91790436 197.52372528 226.12715149 198.47972107 C228.36339046 208.68158857 230.64531889 218.8730776 232.9375 229.0625 C233.22406464 230.338974 233.22406464 230.338974 233.51641846 231.64123535 C234.06061111 234.06446173 234.60620804 236.48736714 235.15234375 238.91015625 C235.38930717 239.9654528 235.38930717 239.9654528 235.63105774 241.04206848 C236.39463879 244.41998274 237.1894284 247.78629629 238.03662109 251.14428711 C238.83739101 254.34919316 239.57770039 257.55005619 240.26171875 260.78125 C240.49012451 261.8549585 240.71853027 262.92866699 240.95385742 264.03491211 C241.19595947 265.17839111 241.43806152 266.32187012 241.6875 267.5 C242.21818461 269.99100593 242.74945891 272.4818863 243.28125 274.97265625 C243.41923508 275.61900528 243.55722015 276.26535431 243.6993866 276.93128967 C245.1921433 283.91459532 246.7101534 290.89234809 248.23526001 297.86865234 C248.53193546 299.22584393 248.82831205 300.58310089 249.12435913 301.94042969 C251.02252775 310.6413298 252.97705864 319.32724509 255 328 C258.05296884 326.47351558 258.79117475 323.53856922 260.1875 320.5625 C264.40256803 311.86227026 269.22124689 303.54837361 274.08447266 295.19799805 C278.48832073 287.63203733 282.80785996 280.02578239 287.0625 272.375 C292.17858483 263.18776585 297.42606641 254.08700364 302.75024414 245.01904297 C306.92266832 237.89442638 310.98489873 230.71430261 315 223.5 C320.0962319 214.34649803 325.3089935 205.27056929 330.60717773 196.23266602 C335.13951859 188.49435405 339.61596375 180.72530351 344.0625 172.9375 C344.40003296 172.34645477 344.73756592 171.75540955 345.08532715 171.14645386 C350.154791 162.2657842 355.18282797 153.36206871 360.20068359 144.45214844 C364.71246876 136.46255798 369.34098154 128.54355354 373.98095703 120.62792969 C377.39490569 114.79096361 380.74243184 108.92554953 384 103 C388.42679645 94.94894187 393.04617688 87.01701237 397.68969727 79.08935547 C401.97124769 71.77617339 406.19845888 64.43429473 410.39233398 57.07055664 C414.93846674 49.09292833 419.52931592 41.14141881 424.13452148 33.19775391 C430.5080713 22.17822408 436.73483081 11.08453011 443 0 C503.06 0 563.12 0 625 0 C623.515 6.93 623.515 6.93 622 14 C620.51113281 14.16435547 620.51113281 14.16435547 618.9921875 14.33203125 C594.46930397 16.87840702 594.46930397 16.87840702 574 29.625 C567.04083005 39.07597485 563.90284361 49.90075686 561.625 61.25 C561.33847353 62.61928383 561.05084137 63.98833668 560.76220703 65.35717773 C557.97702603 78.68048945 555.41700361 92.05265179 552.8425293 105.41796875 C551.14508693 114.2205801 549.4048681 123.00284221 547.4375 131.75 C544.85081536 143.25274942 542.72057982 154.84107331 540.58569336 166.43457031 C538.9998294 175.00006665 537.27820247 183.51661659 535.33531189 192.00898743 C534.22046781 196.89530957 533.3303401 201.7780585 532.55078125 206.7265625 C530.65007854 218.02293745 528.16628713 229.22870611 525.8125 240.4375 C522.0620995 258.30165258 518.5403322 276.21318538 514.97387695 294.11474609 C514.33787987 297.30655206 513.70064564 300.49810659 513.06211853 303.68940735 C512.05098277 308.74428333 511.04141851 313.79947197 510.03222656 318.85473633 C508.1302044 328.38129722 506.2271709 337.9076558 504.3235817 347.43390369 C503.1777681 353.16815344 502.03230891 358.90247348 500.88769531 364.63696289 C499.77452234 370.2138491 498.66035276 375.79053543 497.54554939 381.36709595 C497.10954863 383.54897268 496.67389268 385.73091834 496.23858452 387.91293335 C494.21685027 398.04578881 492.19454145 408.17735294 490.04125977 418.28320312 C489.82404109 419.30772221 489.82404109 419.30772221 489.60243416 420.35293865 C488.96616725 423.35109838 488.32215618 426.34705386 487.66082764 429.33979797 C484.99095529 441.81218479 483.26728297 455.07399232 490.47265625 466.29296875 C491.25962891 467.23076172 491.25962891 467.23076172 492.0625 468.1875 C492.56910156 468.82042969 493.07570313 469.45335937 493.59765625 470.10546875 C501.28657 476.16908366 510.68629272 476.891017 520.125 477.75 C521.36765625 477.87503906 522.6103125 478.00007813 523.890625 478.12890625 C526.92604702 478.43244845 529.96210649 478.72249089 533 479 C531.1450654 493.8549346 531.1450654 493.8549346 530 495 C526.90285742 495.09804809 523.82799884 495.12990642 520.73045349 495.12025452 C519.74546295 495.12110894 518.7604724 495.12196337 517.74563366 495.12284368 C514.41821365 495.12450147 511.09084316 495.11897225 507.76342773 495.11352539 C505.3889262 495.11324356 503.01442458 495.11340118 500.6399231 495.1139679 C494.8440998 495.11422605 489.04829294 495.10987473 483.25247341 495.10353024 C476.51097875 495.0963963 469.76948647 495.09488635 463.02798856 495.09374207 C451.00473954 495.09155123 438.98149729 495.08489027 426.95825195 495.07543945 C415.27596063 495.06626616 403.59367115 495.05918492 391.91137695 495.05493164 C391.19177374 495.05466892 390.47217053 495.05440619 389.73076116 495.05413551 C386.12087064 495.05283051 382.5109801 495.05156679 378.90108955 495.05032361 C348.93405496 495.03995 318.96702827 495.02225669 289 495 C289.30924214 492.89535207 289.6225056 490.7912947 289.9375 488.6875 C290.19853516 486.92986328 290.19853516 486.92986328 290.46484375 485.13671875 C291 482 291 482 292 479 C292.68924561 478.93530518 293.37849121 478.87061035 294.08862305 478.80395508 C319.55563576 476.61400425 319.55563576 476.61400425 340.70703125 463.2265625 C348.82029161 453.16201168 352.55383009 440.05898866 355.0859375 427.59375 C355.26959869 426.71134644 355.45325989 425.82894287 355.64248657 424.9197998 C356.22504429 422.11421813 356.8000701 419.30715349 357.375 416.5 C357.75212842 414.68089089 358.12972976 412.86187976 358.5078125 411.04296875 C360.74972019 400.22815821 362.92712659 389.40072596 365.08753967 378.56938171 C367.46684223 366.64451602 369.88791352 354.72822816 372.3125 342.8125 C372.56233643 341.58377167 372.81217285 340.35504333 373.06958008 339.08908081 C376.33535793 323.02983942 379.61801316 306.97412864 382.91796875 290.921875 C383.2549765 289.28236433 383.5919821 287.64285322 383.9289856 286.00334167 C384.18060298 284.77926212 384.18060298 284.77926212 384.43730354 283.53045368 C385.29158824 279.37447992 386.14584232 275.21849987 387 271.0625 C387.17037781 270.23352329 387.34075562 269.40454659 387.51629639 268.55044937 C392.6721346 243.46130465 397.75737015 218.35957512 402.75805664 193.23901367 C406.53158159 174.28940664 410.37508812 155.35461451 414.26098633 136.42773438 C416.67544632 124.64407848 419.0199767 112.85087251 421.23277283 101.0274353 C423.02529057 91.55304413 425.24437556 82.19910181 427.62036133 72.85571289 C428.10021358 70.825837 428.10021358 70.825837 428 68 C427.64228516 68.65846924 427.28457031 69.31693848 426.91601562 69.99536133 C417.92528743 86.51567899 408.69897273 102.89531505 399.18164062 119.11791992 C395.22222408 125.87602461 391.33822527 132.67241016 387.5 139.5 C383.13036719 147.26992702 378.69288914 154.99549592 374.1875 162.6875 C367.39576312 174.28555109 360.71921914 185.94761916 354.06488037 197.62475586 C351.67624687 201.81598323 349.28283347 206.00445186 346.88671875 210.19140625 C340.68637292 221.02763869 334.50039263 231.87113037 328.375 242.75 C324.03268478 250.46143351 319.60579232 258.11827952 315.125 265.75 C309.46531659 275.39335705 304.01041032 285.13876866 298.6081543 294.92822266 C293.92776941 303.38721686 289.09822885 311.74820957 284.19921875 320.08203125 C280.04099732 327.17161148 275.9963387 334.31806095 272 341.5 C266.86662372 350.72418094 261.60422475 359.86240752 256.25878906 368.96508789 C251.99823967 376.23964778 247.85181081 383.57240396 243.75 390.9375 C239.57172043 398.43886574 235.34164676 405.89697099 230.95678711 413.27929688 C227.00094101 419.95612468 223.15600369 426.69564444 219.3125 433.4375 C213.95932797 442.82522893 208.59001979 452.2030389 203.1875 461.5625 C202.57285889 462.62791016 201.95821777 463.69332031 201.32495117 464.79101562 C198.44427626 469.78073542 195.55617977 474.76590777 192.65234375 479.7421875 C192.13841064 480.62447021 191.62447754 481.50675293 191.0949707 482.41577148 C190.14413619 484.04692406 189.19100121 485.67673876 188.23510742 487.30493164 C187.8197876 488.01770264 187.40446777 488.73047363 186.9765625 489.46484375 C186.61643066 490.079646 186.25629883 490.69444824 185.88525391 491.32788086 C184.85311545 493.16664431 184.85311545 493.16664431 184 496 C177.07 496 170.14 496 163 496 C161.41144845 489.66516639 159.83300739 483.32832432 158.28125 476.984375 C157.68753728 474.57290749 157.09378696 472.16144923 156.5 469.75 C156.05720703 467.92855469 156.05720703 467.92855469 155.60546875 466.0703125 C153.78820326 458.68416507 153.78820326 458.68416507 151.33984375 451.4921875 C150.13379405 448.34872268 149.48808641 445.6936176 149.0625 442.375 C148.18830706 436.58347176 146.67531075 431.12874295 145.01171875 425.51953125 C143.2350169 419.33880398 141.77190591 413.06828397 140.57299805 406.74951172 C139.39850887 400.5929444 137.83941338 394.6330564 136.0625 388.625 C133.43502016 379.5710173 130.98652688 370.5240901 128.96875 361.3125 C128.78779785 360.4877417 128.6068457 359.6629834 128.42041016 358.81323242 C128.06168905 357.16847848 127.70707767 355.52282189 127.35693359 353.8762207 C126.82629521 350.13022032 126.82629521 350.13022032 125 347 C124.68327205 345.24692582 124.41025747 343.48591059 124.15625 341.72265625 C123.10178029 335.12343332 121.39234722 328.83901769 119.5 322.4375 C117.44197124 315.4496743 115.60471714 308.57801916 114.45483398 301.37792969 C114.01474067 299.07706608 113.37735818 297.00516872 112.5625 294.8125 C111.10084359 290.71986205 110.30873312 286.58165937 109.5625 282.3125 C108.43556186 275.91235595 106.88500228 269.76659857 105.03125 263.53125 C102.68198386 255.48679323 100.72731569 247.32997246 98.91796875 239.1484375 C96.366322 227.61490719 93.49939422 216.19701263 90.4079895 204.79742432 C88.14179715 196.43276224 86.02742481 188.07221071 84.23071289 179.59472656 C83.25917303 175.03770257 82.04701361 170.62744414 80.64453125 166.1875 C79.74690989 163.1410275 79.17006108 160.06275956 78.57421875 156.9453125 C75.32393582 140.27379324 71.00764108 123.83239596 66.85058594 107.37011719 C65.89438896 103.58155718 64.94538117 99.79127089 64 96 C61.81772455 104.78419561 60.18568724 113.56143033 58.86541748 122.51385498 C57.29165705 133.15727002 55.56709899 143.7431802 53.37475586 154.27905273 C52.20494626 159.90983066 51.20078137 165.54808813 50.28686523 171.22558594 C49.42574723 176.53476883 48.50151635 181.83119138 47.55078125 187.125 C47.3538266 188.22532059 47.3538266 188.22532059 47.15289307 189.34786987 C46.07180124 195.38662404 46.07180124 195.38662404 45.54351807 198.29107666 C44.15544164 205.92582558 42.89040588 213.5316336 42.00390625 221.2421875 C41.31750356 227.1686636 40.19161596 232.87311314 38.77197266 238.66650391 C37.27856346 245.11527341 36.2735037 251.66019938 35.1875 258.1875 C34.66722676 261.28026319 34.14422123 264.37256223 33.62109375 267.46484375 C33.48865265 268.24977203 33.35621155 269.03470032 33.21975708 269.84341431 C32.28976005 275.33941354 31.32861787 280.82928752 30.34765625 286.31640625 C30.21300461 287.07096603 30.07835297 287.82552582 29.93962097 288.60295105 C29.41961125 291.51433252 28.89923757 294.42562915 28.37240601 297.33578491 C26.88847573 305.53538934 25.58309724 313.72136907 24.63378906 322.00292969 C24.16104074 325.42315058 23.38206341 328.74165489 22.58496094 332.10009766 C20.97257744 338.93534241 19.75772716 345.79773025 18.625 352.7265625 C18.41439941 353.99486908 18.20379883 355.26317566 17.98681641 356.56991577 C17.43196111 359.91230499 16.88209317 363.25549571 16.33325195 366.59887695 C15.78282662 369.94538231 15.22700882 373.29099187 14.671875 376.63671875 C13.62104259 382.97403013 12.58425743 389.313584 11.55059814 395.65371704 C11.05561185 398.66201669 10.54730389 401.6676118 10.03271484 404.67260742 C8.53784557 413.51495047 7.51935372 422.06495816 7.625 431.0625 C7.61339844 432.08537109 7.60179687 433.10824219 7.58984375 434.16210938 C7.63373726 445.62563176 10.74908993 455.02133402 18 464 C31.72818452 476.70929583 52.42258291 477.28779564 70 479 C69.85566132 480.35432679 69.70943339 481.70845225 69.5625 483.0625 C69.44068359 484.19365234 69.44068359 484.19365234 69.31640625 485.34765625 C68.93176114 488.57202696 68.45922801 491.78540391 68 495 C17.18 495 -33.64 495 -86 495 C-86 488.47469371 -85.88570049 485.65710148 -84 480 C-82.35064453 479.72736328 -82.35064453 479.72736328 -80.66796875 479.44921875 C-64.78008408 476.77152584 -49.32466894 474.10888922 -37 463 C-36.46761719 462.52304687 -35.93523437 462.04609375 -35.38671875 461.5546875 C-18.56047412 444.22955152 -15.59119754 414.15312047 -11.66369629 391.74560547 C-11.07754014 388.41488574 -10.47877689 385.08643732 -9.88085938 381.7578125 C-8.97424083 376.70195037 -8.07208911 371.64533074 -7.17431641 366.58789062 C-6.23207631 361.28951884 -5.27915913 355.99349987 -4.29296875 350.703125 C-4.08567139 349.59098633 -3.87837402 348.47884766 -3.66479492 347.33300781 C-3.15063759 344.75523483 -2.59425051 342.20077541 -2.00854492 339.63916016 C-0.99923943 335.14040258 -0.25503261 330.6282164 0.4296875 326.0703125 C1.88267937 316.65111215 3.4744564 307.26137678 5.125 297.875 C5.34858688 296.59965897 5.34858688 296.59965897 5.57669067 295.29855347 C8.13134023 280.73933091 10.78767858 266.19989117 13.47290039 251.66427612 C17.58154235 229.40920783 21.59380809 207.13695179 25.59883499 184.86304855 C26.11480528 181.994184 26.6311783 179.12539222 27.14767456 176.25662231 C32.93817509 144.08976243 38.65792816 111.90968527 44.15625 79.69140625 C44.67426053 76.72303805 45.25006352 73.78066224 45.90625 70.83984375 C48.52665779 58.72045773 51.18822219 42.82282105 46.125 31.0625 C40.68102993 23.1593302 32.94498786 19.39887462 23.72265625 17.65625 C22.65917969 17.4809375 21.59570312 17.305625 20.5 17.125 C19.43652344 16.92648437 18.37304688 16.72796875 17.27734375 16.5234375 C10.87557144 15.36090707 4.48355008 14.53425901 -2 14 C-2.22137642 8.57627762 -1.56453195 5.47586183 0 0 Z " fill="#F1EDE1" transform="translate(385,426)"/>
<path d="M0 0 C1.61068359 0.66128906 1.61068359 0.66128906 3.25390625 1.3359375 C18.59076193 8.23836432 30.53764635 20.00523503 36.875 35.6875 C42.71521349 51.21627958 41.26765634 68.86250797 35 84 C27.46115602 99.81187466 16.26997978 109.67398922 0 116 C-0.66306152 116.26039063 -1.32612305 116.52078125 -2.00927734 116.7890625 C-7.58310849 118.83316561 -12.57816067 119.54641585 -18.5 119.5 C-19.36294678 119.49427979 -20.22589355 119.48855957 -21.11499023 119.48266602 C-34.51346864 119.1177556 -46.29967442 115.13956391 -57 107 C-57.64066406 106.53980469 -58.28132812 106.07960938 -58.94140625 105.60546875 C-70.29555586 96.79139735 -77.56538922 81.96376184 -80 68 C-81.61747074 50.34651369 -78.81237711 34.51526592 -67.84765625 20.1875 C-59.5244685 10.474866 -49.33095841 2.7957542 -37 -1 C-36.34515625 -1.22300781 -35.6903125 -1.44601562 -35.015625 -1.67578125 C-24.23574107 -4.7467947 -10.25669773 -4.50452128 0 0 Z " fill="#B47833" transform="translate(1042,804)"/>
<path d="M0 0 C1.61068359 0.66128906 1.61068359 0.66128906 3.25390625 1.3359375 C17.24693591 7.63356885 29.78466772 18.63600877 35.875 33 C37.39204006 37.54181318 37.71738795 42.24432137 38 47 C36 46 36 46 35.18359375 44.07421875 C34.93738281 43.28660156 34.69117188 42.49898437 34.4375 41.6875 C34.18871094 40.90761719 33.93992187 40.12773438 33.68359375 39.32421875 C33.06651123 37.22613818 32.5108565 35.12613612 32 33 C31.4225 32.855625 30.845 32.71125 30.25 32.5625 C28 32 28 32 26 31.25 C23.88103856 30.75646894 23.88103856 30.75646894 22.0625 32.375 C21.381875 32.91125 20.70125 33.4475 20 34 C18.7315625 34.2475 18.7315625 34.2475 17.4375 34.5 C14.96133256 34.77484079 14.96133256 34.77484079 13.5625 36.4375 C12 38 12 38 9.1875 38.875 C4.9100254 40.38469692 1.09498074 42.81003852 -1 47 C-3.0625 47.625 -3.0625 47.625 -5 48 C-5 47.01 -5 46.02 -5 45 C-5.763125 45 -6.52625 45 -7.3125 45 C-9.20833333 45 -11.10416667 45 -13 45 C-12.34 44.34 -11.68 43.68 -11 43 C-9.68 43 -8.36 43 -7 43 C-7 42.34 -7 41.68 -7 41 C-6.278125 41.12375 -5.55625 41.2475 -4.8125 41.375 C-1.7157073 41.26539846 -1.7157073 41.26539846 0.5 38.3125 C0.90992188 37.76851562 1.31984375 37.22453125 1.7421875 36.6640625 C4.39094833 33.15980128 6.81011473 30.39662842 11 29 C11 28.34 11 27.68 11 27 C11.99 26.34 12.98 25.68 14 25 C14.495 23.515 14.495 23.515 15 22 C16.65 21.67 18.3 21.34 20 21 C19.01 17.535 19.01 17.535 18 14 C16.02 13.67 14.04 13.34 12 13 C12 12.34 12 11.68 12 11 C10.68 11.33 9.36 11.66 8 12 C7.01 10.02 7.01 10.02 6 8 C5.34 8.66 4.68 9.32 4 10 C3.505 8.515 3.505 8.515 3 7 C2.030625 6.87625 1.06125 6.7525 0.0625 6.625 C-0.948125 6.41875 -1.95875 6.2125 -3 6 C-3.495 5.01 -3.495 5.01 -4 4 C-4.515625 4.20625 -5.03125 4.4125 -5.5625 4.625 C-9.03301426 5.15892527 -11.64254411 3.99072469 -15 3 C-21.17048642 1.75913436 -27.06040035 1.66232624 -33 4 C-33.49757813 4.52078125 -33.99515625 5.0415625 -34.5078125 5.578125 C-36 7 -36 7 -40 7 C-40.639375 7.66 -41.27875 8.32 -41.9375 9 C-44 11 -44 11 -46.625 11.0625 C-47.40875 11.041875 -48.1925 11.02125 -49 11 C-49.99 12.485 -49.99 12.485 -51 14 C-53 16.1875 -53 16.1875 -55 18 C-55.66 18 -56.32 18 -57 18 C-57 19.65 -57 21.3 -57 23 C-60 24 -60 24 -61.9375 23.5 C-64.31772734 22.92297519 -65.69706679 23.25977147 -68 24 C-67.8887762 20.32961445 -66.6894624 18.33402314 -64.25 15.75 C-56.4192824 8.40166747 -47.30562357 2.1723093 -37 -1 C-36.34515625 -1.22300781 -35.6903125 -1.44601562 -35.015625 -1.67578125 C-24.23574107 -4.7467947 -10.25669773 -4.50452128 0 0 Z " fill="#D59C55" transform="translate(1042,804)"/>
<path d="M0 0 C1.670625 0.061875 1.670625 0.061875 3.375 0.125 C3.045 0.723125 2.715 1.32125 2.375 1.9375 C1.16712012 4.17886471 1.16712012 4.17886471 1.375 7.125 C0.41560332 8.81536558 -0.59142853 10.47894174 -1.625 12.125 C-2.058125 13.07375 -2.49125 14.0225 -2.9375 15 C-7.03829588 22.59406645 -11.6574314 26.13716177 -19.625 29.125 C-20.346875 29.29 -21.06875 29.455 -21.8125 29.625 C-23.85784665 30.0287763 -23.85784665 30.0287763 -25.625 32.125 C-27.75 31.75 -27.75 31.75 -29.625 31.125 C-28.635 30.465 -27.645 29.805 -26.625 29.125 C-29.98795835 30.56626786 -32.25427102 32.33092655 -34.625 35.125 C-34.625 36.115 -34.625 37.105 -34.625 38.125 C-34.295 37.465 -33.965 36.805 -33.625 36.125 C-31.645 36.455 -29.665 36.785 -27.625 37.125 C-27.955 38.775 -28.285 40.425 -28.625 42.125 C-28.955 41.465 -29.285 40.805 -29.625 40.125 C-30.285 40.125 -30.945 40.125 -31.625 40.125 C-31.625 41.115 -31.625 42.105 -31.625 43.125 C-34.1 43.62 -34.1 43.62 -36.625 44.125 C-36.295 43.135 -35.965 42.145 -35.625 41.125 C-36.945 41.125 -38.265 41.125 -39.625 41.125 C-38.965 38.815 -38.305 36.505 -37.625 34.125 C-39.275 33.795 -40.925 33.465 -42.625 33.125 C-42.625 32.135 -42.625 31.145 -42.625 30.125 C-41.635 29.795 -40.645 29.465 -39.625 29.125 C-39.955 28.465 -40.285 27.805 -40.625 27.125 C-39.305 26.465 -37.985 25.805 -36.625 25.125 C-37.26308594 24.71507812 -37.90117188 24.30515625 -38.55859375 23.8828125 C-39.38488281 23.34398437 -40.21117187 22.80515625 -41.0625 22.25 C-41.88621094 21.71632813 -42.70992187 21.18265625 -43.55859375 20.6328125 C-45.625 19.125 -45.625 19.125 -46.625 17.125 C-48.605 17.785 -50.585 18.445 -52.625 19.125 C-53.31207555 16.63435112 -53.625 14.74613708 -53.625 12.125 C-50.15558454 12.58322468 -46.95104951 13.01631683 -43.625 14.125 C-42.305 14.125 -40.985 14.125 -39.625 14.125 C-39.625 13.465 -39.625 12.805 -39.625 12.125 C-37.645 12.785 -35.665 13.445 -33.625 14.125 C-33.625 13.465 -33.625 12.805 -33.625 12.125 C-30.16 11.63 -30.16 11.63 -26.625 11.125 C-26.295 10.135 -25.965 9.145 -25.625 8.125 C-23.12109375 7.17578125 -23.12109375 7.17578125 -20.0625 6.4375 C-19.05058594 6.18613281 -18.03867188 5.93476562 -16.99609375 5.67578125 C-16.21363281 5.49402344 -15.43117188 5.31226563 -14.625 5.125 C-14.955 5.785 -15.285 6.445 -15.625 7.125 C-14.201875 7.0940625 -14.201875 7.0940625 -12.75 7.0625 C-9.625 7.125 -9.625 7.125 -7.625 8.125 C-7.33625 7.17625 -7.0475 6.2275 -6.75 5.25 C-5.17942225 0.88728404 -4.72201022 0.16282794 0 0 Z " fill="#9C6122" transform="translate(1058.625,870.875)"/>
<path d="M0 0 C0.33 0 0.66 0 1 0 C1.05945801 1.08099976 1.05945801 1.08099976 1.12011719 2.18383789 C1.31173252 5.47808658 1.5306211 8.7699884 1.75 12.0625 C1.811875 13.19623047 1.87375 14.32996094 1.9375 15.49804688 C2.40536294 22.18458799 3.23038453 26.45980756 7 32 C7.79121703 33.79489049 8.54752808 35.60605536 9.25 37.4375 C9.58515625 38.30246094 9.9203125 39.16742187 10.265625 40.05859375 C10.62914062 41.01958984 10.62914062 41.01958984 11 42 C11.66 42 12.32 42 13 42 C13 42.99 13 43.98 13 45 C14.98 44.505 14.98 44.505 17 44 C17 46.31 17 48.62 17 51 C17.33 50.01 17.66 49.02 18 48 C19.485 47.505 19.485 47.505 21 47 C21.66 46.34 22.32 45.68 23 45 C23.33 45.99 23.66 46.98 24 48 C23.67 48.33 23.34 48.66 23 49 C23.99 49.99 24.98 50.98 26 52 C27.485 51.505 27.485 51.505 29 51 C29.33 52.65 29.66 54.3 30 56 C28.515 56.495 28.515 56.495 27 57 C26.67 57.66 26.34 58.32 26 59 C26.66 59 27.32 59 28 59 C28 59.66 28 60.32 28 61 C28.87011719 61.18369141 28.87011719 61.18369141 29.7578125 61.37109375 C32.04466818 62.01252888 33.80853224 62.90478011 35.875 64.0625 C39.39287313 65.88731434 41.98695807 66.40130419 46 66 C46 66.66 46 67.32 46 68 C48.37456165 68.1963696 50.74920019 68.38231294 53.125 68.5625 C53.79015625 68.61857422 54.4553125 68.67464844 55.140625 68.73242188 C59.28850203 69.03741283 62.92703944 68.77719334 67 68 C68.134375 68.04125 69.26875 68.0825 70.4375 68.125 C74.54111259 67.98101359 77.4104867 66.81266839 81 65 C81.82113281 64.60167969 82.64226562 64.20335937 83.48828125 63.79296875 C86.00796088 62.55739252 88.50636217 61.28717592 91 60 C91.928125 59.525625 92.85625 59.05125 93.8125 58.5625 C95.87162433 57.09169691 97.1121397 55.76121158 98.6875 53.8125 C99.8321875 52.4203125 99.8321875 52.4203125 101 51 C101.66 51 102.32 51 103 51 C103 50.34 103 49.68 103 49 C103.66 49 104.32 49 105 49 C105.28875 48.4225 105.5775 47.845 105.875 47.25 C111 37 111 37 112.1484375 34.953125 C113.38744876 32.11135605 112.67090336 29.95197476 112 27 C113.32 27.66 114.64 28.32 116 29 C116 26.69 116 24.38 116 22 C116.99 22 117.98 22 119 22 C116.16608814 37.45770105 109.18659564 50.89196154 96.5625 60.5 C91.32947221 64.00590719 85.88119036 66.75690449 80 69 C79.33838867 69.25894043 78.67677734 69.51788086 77.99511719 69.78466797 C72.41852478 71.83055444 67.42518231 72.54644205 61.5 72.5 C60.63705322 72.49427979 59.77410645 72.48855957 58.88500977 72.48266602 C45.48653136 72.1177556 33.70032558 68.13956391 23 60 C22.35933594 59.53980469 21.71867188 59.07960938 21.05859375 58.60546875 C9.79403014 49.86094174 2.2553897 34.9204113 0 21 C-0.21844029 17.32751572 -0.1909356 13.67717797 -0.125 10 C-0.11597656 9.03449219 -0.10695313 8.06898438 -0.09765625 7.07421875 C-0.07430635 4.71587901 -0.04156047 2.35807714 0 0 Z " fill="#7B4C1E" transform="translate(962,851)"/>
<path d="M0 0 C2.625 -0.5 2.625 -0.5 6 0 C12.81469345 6.26350501 16.34272402 16.1109743 18 25 C17.54296875 27.23046875 17.54296875 27.23046875 17 29 C16.16235732 27.04350603 15.33000941 25.08474444 14.5 23.125 C14.0359375 22.03445313 13.571875 20.94390625 13.09375 19.8203125 C12 17 12 17 12 15 C11.4225 14.855625 10.845 14.71125 10.25 14.5625 C8 14 8 14 6 13.25 C3.88103856 12.75646894 3.88103856 12.75646894 2.0625 14.375 C1.381875 14.91125 0.70125 15.4475 0 16 C-1.2684375 16.2475 -1.2684375 16.2475 -2.5625 16.5 C-5.03866744 16.77484079 -5.03866744 16.77484079 -6.4375 18.4375 C-8 20 -8 20 -10.8125 20.875 C-15.0899746 22.38469692 -18.90501926 24.81003852 -21 29 C-23.0625 29.625 -23.0625 29.625 -25 30 C-25 29.01 -25 28.02 -25 27 C-25.763125 27 -26.52625 27 -27.3125 27 C-29.20833333 27 -31.10416667 27 -33 27 C-32.34 26.34 -31.68 25.68 -31 25 C-29.68 25 -28.36 25 -27 25 C-27 24.34 -27 23.68 -27 23 C-26.278125 23.12375 -25.55625 23.2475 -24.8125 23.375 C-21.7157073 23.26539846 -21.7157073 23.26539846 -19.5 20.3125 C-19.09007812 19.76851562 -18.68015625 19.22453125 -18.2578125 18.6640625 C-15.60905167 15.15980128 -13.18988527 12.39662842 -9 11 C-9 10.34 -9 9.68 -9 9 C-8.01 8.34 -7.02 7.68 -6 7 C-5.67 6.01 -5.34 5.02 -5 4 C-3.35 3.67 -1.7 3.34 0 3 C0 2.01 0 1.02 0 0 Z " fill="#C68940" transform="translate(1062,822)"/>
<path d="M0 0 C1.670625 0.061875 1.670625 0.061875 3.375 0.125 C2.6875 2 2.6875 2 1.375 4.125 C-0.2885479 4.79941131 -1.95566942 5.4650321 -3.625 6.125 C-4.305625 6.888125 -4.98625 7.65125 -5.6875 8.4375 C-9.37712155 11.81311121 -13.13073088 13.13614637 -17.7578125 14.91796875 C-20.1732843 15.93483631 -21.90325847 16.90009652 -23.9375 18.5 C-27.5199773 20.66614907 -29.65149212 20.07864189 -33.625 19.125 C-33.625 18.465 -33.625 17.805 -33.625 17.125 C-38.16670996 19.03384692 -38.16670996 19.03384692 -42.625 21.125 C-43.945 19.805 -45.265 18.485 -46.625 17.125 C-48.605 17.785 -50.585 18.445 -52.625 19.125 C-53.31207555 16.63435112 -53.625 14.74613708 -53.625 12.125 C-50.15558454 12.58322468 -46.95104951 13.01631683 -43.625 14.125 C-42.305 14.125 -40.985 14.125 -39.625 14.125 C-39.625 13.465 -39.625 12.805 -39.625 12.125 C-37.645 12.785 -35.665 13.445 -33.625 14.125 C-33.625 13.465 -33.625 12.805 -33.625 12.125 C-30.16 11.63 -30.16 11.63 -26.625 11.125 C-26.295 10.135 -25.965 9.145 -25.625 8.125 C-23.12109375 7.17578125 -23.12109375 7.17578125 -20.0625 6.4375 C-19.05058594 6.18613281 -18.03867188 5.93476562 -16.99609375 5.67578125 C-16.21363281 5.49402344 -15.43117188 5.31226563 -14.625 5.125 C-14.955 5.785 -15.285 6.445 -15.625 7.125 C-14.201875 7.0940625 -14.201875 7.0940625 -12.75 7.0625 C-9.625 7.125 -9.625 7.125 -7.625 8.125 C-7.33625 7.17625 -7.0475 6.2275 -6.75 5.25 C-5.17942225 0.88728404 -4.72201022 0.16282794 0 0 Z " fill="#A36928" transform="translate(1058.625,870.875)"/>
<path d="M0 0 C-4.66544636 5.21075827 -8.00096882 8.78862922 -15 10 C-18.38600575 10.69825256 -18.38600575 10.69825256 -21 13 C-23.125 12.625 -23.125 12.625 -25 12 C-24.01 11.34 -23.02 10.68 -22 10 C-25.36295835 11.44126786 -27.62927102 13.20592655 -30 16 C-30 16.99 -30 17.98 -30 19 C-29.67 18.34 -29.34 17.68 -29 17 C-27.02 17.33 -25.04 17.66 -23 18 C-23.33 19.65 -23.66 21.3 -24 23 C-24.33 22.34 -24.66 21.68 -25 21 C-25.66 21 -26.32 21 -27 21 C-27 21.99 -27 22.98 -27 24 C-28.65 24.33 -30.3 24.66 -32 25 C-31.67 24.01 -31.34 23.02 -31 22 C-32.32 22 -33.64 22 -35 22 C-34.01 18.535 -34.01 18.535 -33 15 C-34.65 14.67 -36.3 14.34 -38 14 C-38 13.01 -38 12.02 -38 11 C-36.35 11 -34.7 11 -33 11 C-32.67 10.01 -32.34 9.02 -32 8 C-30.1796875 7.3046875 -30.1796875 7.3046875 -27.875 6.875 C-27.06933594 6.7203125 -26.26367188 6.565625 -25.43359375 6.40625 C-22.29312646 5.88199864 -19.15848278 5.40321057 -16 5 C-16 5.66 -16 6.32 -16 7 C-14.35 6.34 -12.7 5.68 -11 5 C-11 4.34 -11 3.68 -11 3 C-4.03571429 -1.41964286 -4.03571429 -1.41964286 0 0 Z " fill="#945A1C" transform="translate(1054,890)"/>
<path d="M0 0 C0.33 0 0.66 0 1 0 C1.05945801 1.08099976 1.05945801 1.08099976 1.12011719 2.18383789 C1.31173252 5.47808658 1.5306211 8.7699884 1.75 12.0625 C1.811875 13.19623047 1.87375 14.32996094 1.9375 15.49804688 C2.40536294 22.18458799 3.23038453 26.45980756 7 32 C7.79121703 33.79489049 8.54752808 35.60605536 9.25 37.4375 C9.58515625 38.30246094 9.9203125 39.16742187 10.265625 40.05859375 C10.62914062 41.01958984 10.62914062 41.01958984 11 42 C11.66 42 12.32 42 13 42 C13 42.99 13 43.98 13 45 C14.98 44.505 14.98 44.505 17 44 C17 46.31 17 48.62 17 51 C14.52415315 50.62809167 13.27366166 50.28225836 11.5078125 48.4609375 C5.2297514 38.99064194 -0.1683547 27.44181531 -0.09765625 15.91796875 C-0.09443359 14.98662109 -0.09121094 14.05527344 -0.08789062 13.09570312 C-0.07951172 12.13599609 -0.07113281 11.17628906 -0.0625 10.1875 C-0.05798828 9.20845703 -0.05347656 8.22941406 -0.04882812 7.22070312 C-0.03708684 4.81373889 -0.02066419 2.40690143 0 0 Z " fill="#8A5E31" transform="translate(962,851)"/>
<path d="M0 0 C0.66 0.33 1.32 0.66 2 1 C0 4 0 4 -3 5 C-3 5.66 -3 6.32 -3 7 C-2.01 7.33 -1.02 7.66 0 8 C-1.375 10 -1.375 10 -3 12 C-3.66 12 -4.32 12 -5 12 C-5 13.65 -5 15.3 -5 17 C-8 18 -8 18 -9.9375 17.5 C-12.31772734 16.92297519 -13.69706679 17.25977147 -16 18 C-15.85301882 13.14962098 -13.38656344 10.93339819 -10.0546875 7.78125 C-6.84108068 4.99530949 -3.46799066 2.45912065 0 0 Z " fill="#CB9047" transform="translate(990,810)"/>
<path d="M0 0 C-3.44807511 0.98283565 -6.55630562 1.02727013 -10.14208984 0.93408203 C-26.54216271 0.52314626 -39.91153149 4.88618342 -53 15 C-53 13.35 -53 11.7 -53 10 C-51.02 9.67 -49.04 9.34 -47 9 C-47 8.34 -47 7.68 -47 7 C-45.35 6.67 -43.7 6.34 -42 6 C-42 5.34 -42 4.68 -42 4 C-38.02483721 0.97980796 -33.82461369 0.10252372 -29 -0.6875 C-28.25250488 -0.81342529 -27.50500977 -0.93935059 -26.73486328 -1.0690918 C-17.70816977 -2.49076234 -8.69781464 -3.23639614 0 0 Z " fill="#1F0D04" transform="translate(1036,801)"/>
<path d="M0 0 C0.80816162 0.00418945 1.61632324 0.00837891 2.44897461 0.01269531 C8.51622348 0.12729822 13.75780079 0.91943296 19.375 3.3125 C20.23222656 3.67214844 21.08945313 4.03179688 21.97265625 4.40234375 C24.12561783 5.33740125 26.25566865 6.3040259 28.375 7.3125 C27.385 7.9725 26.395 8.6325 25.375 9.3125 C25.375 8.6525 25.375 7.9925 25.375 7.3125 C24.570625 7.333125 23.76625 7.35375 22.9375 7.375 C20.375 7.3125 20.375 7.3125 19.375 6.3125 C13.7702291 6.09923597 13.7702291 6.09923597 8.375 7.3125 C8.045 6.3225 7.715 5.3325 7.375 4.3125 C5.13852369 3.19426185 3.72608471 3.11853939 1.2421875 2.99609375 C0.43652344 2.95419922 -0.36914062 2.91230469 -1.19921875 2.86914062 C-2.04097656 2.82982422 -2.88273438 2.79050781 -3.75 2.75 C-4.59949219 2.70681641 -5.44898438 2.66363281 -6.32421875 2.61914062 C-8.42428223 2.51295764 -10.52461948 2.41221503 -12.625 2.3125 C-8.72240165 -0.30662349 -4.52236802 -0.03153738 0 0 Z " fill="#BF8F56" transform="translate(1022.625,800.6875)"/>
<path d="M0 0 C0.99 0 1.98 0 3 0 C0.99647729 10.92830571 -2.70008593 22.18285498 -11 30 C-13.21484375 30.73828125 -13.21484375 30.73828125 -15 31 C-15 30.34 -15 29.68 -15 29 C-14.34 29 -13.68 29 -13 29 C-13 28.34 -13 27.68 -13 27 C-12.34 27 -11.68 27 -11 27 C-10.566875 26.13375 -10.566875 26.13375 -10.125 25.25 C-5 15 -5 15 -3.8515625 12.953125 C-2.61255124 10.11135605 -3.32909664 7.95197476 -4 5 C-2.68 5.66 -1.36 6.32 0 7 C0 4.69 0 2.38 0 0 Z " fill="#8E5C27" transform="translate(1078,873)"/>
<path d="M0 0 C0.66 0.99 1.32 1.98 2 3 C1.67 3.33 1.34 3.66 1 4 C1.99 4.99 2.98 5.98 4 7 C4.99 6.67 5.98 6.34 7 6 C7.33 7.65 7.66 9.3 8 11 C0.25 12.125 0.25 12.125 -2 11 C-2.6328125 9.15234375 -2.6328125 9.15234375 -3.125 6.9375 C-3.29257812 6.20402344 -3.46015625 5.47054687 -3.6328125 4.71484375 C-3.75398437 4.14894531 -3.87515625 3.58304688 -4 3 C-3.01 2.67 -2.02 2.34 -1 2 C-0.67 1.34 -0.34 0.68 0 0 Z " fill="#91581C" transform="translate(984,896)"/>
<path d="M0 0 C3.96 1.98 3.96 1.98 8 4 C8 4.99 8 5.98 8 7 C8.66 7 9.32 7 10 7 C10 7.99 10 8.98 10 10 C9.34 10 8.68 10 8 10 C8 10.99 8 11.98 8 13 C7.34 13 6.68 13 6 13 C5.67 11.68 5.34 10.36 5 9 C3.68 9 2.36 9 1 9 C1.66 7.68 2.32 6.36 3 5 C2.01 5 1.02 5 0 5 C0 3.35 0 1.7 0 0 Z " fill="#A66C2A" transform="translate(983,873)"/>
<path d="M0 0 C0.9867097 3.11074833 0.96838493 5.16442757 0.22265625 8.328125 C0.03896484 9.12734375 -0.14472656 9.9265625 -0.33398438 10.75 C-0.53314453 11.575 -0.73230469 12.4 -0.9375 13.25 C-1.13279297 14.09046875 -1.32808594 14.9309375 -1.52929688 15.796875 C-2.01142286 17.86648898 -2.50463863 19.93351395 -3 22 C-3.33 22 -3.66 22 -4 22 C-4 19.36 -4 16.72 -4 14 C-5.98 14.99 -5.98 14.99 -8 16 C-6.57250019 12.20950293 -4.83763458 8.72877544 -2.875 5.1875 C-2.33617187 4.21167969 -1.79734375 3.23585938 -1.2421875 2.23046875 C-0.83226562 1.49441406 -0.42234375 0.75835937 0 0 Z " fill="#33312E" transform="translate(813,493)"/>
<path d="M0 0 C0.33 0 0.66 0 1 0 C0.98839844 1.02480469 0.97679687 2.04960938 0.96484375 3.10546875 C0.95545978 4.466144 0.94636023 5.82682124 0.9375 7.1875 C0.92912109 7.86103516 0.92074219 8.53457031 0.91210938 9.22851562 C0.89807506 12.10555061 0.95948217 14.79979427 1.53125 17.625 C2.09674612 20.49018036 1.8766823 22.91504102 1.5625 25.8125 C1.46066406 26.78832031 1.35882812 27.76414062 1.25390625 28.76953125 C1.17011719 29.50558594 1.08632813 30.24164062 1 31 C1.99 31 2.98 31 4 31 C3.505 33.475 3.505 33.475 3 36 C1 35 1 35 0 32 C-2.75159236 5.50318471 -2.75159236 5.50318471 0 0 Z " fill="#9E6A31" transform="translate(964,844)"/>
<path d="M0 0 C0.33 0.66 0.66 1.32 1 2 C1.66 2 2.32 2 3 2 C2.75 3.875 2.75 3.875 2 6 C1.360625 6.28875 0.72125 6.5775 0.0625 6.875 C-2.34703737 7.90505873 -2.34703737 7.90505873 -3.25 11.125 C-3.4975 12.07375 -3.745 13.0225 -4 14 C-4.66 14 -5.32 14 -6 14 C-6 15.32 -6 16.64 -6 18 C-6.66 18 -7.32 18 -8 18 C-7.45960463 13.44041411 -6.26620958 10.16970963 -4 6.1875 C-3.46375 5.23230469 -2.9275 4.27710938 -2.375 3.29296875 C-1 1 -1 1 0 0 Z " fill="#A57640" transform="translate(973,826)"/>
<path d="M0 0 C5.21979128 -0.1799928 9.07262981 0.02905192 14 2 C13.67 3.98 13.34 5.96 13 8 C12.34 7.67 11.68 7.34 11 7 C11 6.34 11 5.68 11 5 C10.030625 4.87625 9.06125 4.7525 8.0625 4.625 C7.051875 4.41875 6.04125 4.2125 5 4 C4.67 3.34 4.34 2.68 4 2 C2.68 2.33 1.36 2.66 0 3 C0 2.01 0 1.02 0 0 Z " fill="#DA9E53" transform="translate(1034,806)"/>
<path d="M0 0 C0.33 0 0.66 0 1 0 C1.19676277 8.29683005 1.25943749 15.95075394 -1 24 C-1.66 24 -2.32 24 -3 24 C-3.33 24.66 -3.66 25.32 -4 26 C-3.38641858 17.19828026 -1.70450615 8.64045258 0 0 Z " fill="#C4C1B8" transform="translate(372,824)"/>
<path d="M0 0 C0 0.66 0 1.32 0 2 C-0.99 2 -1.98 2 -3 2 C-3.38671875 2.87398438 -3.38671875 2.87398438 -3.78125 3.765625 C-5.09834017 6.1802903 -6.55088384 7.81740177 -8.5 9.75 C-9.41265625 10.67039062 -9.41265625 10.67039062 -10.34375 11.609375 C-12 13 -12 13 -14 13 C-14 13.99 -14 14.98 -14 16 C-14.66 16 -15.32 16 -16 16 C-14.2281799 9.7001952 -9.41427544 4.71681809 -4.1875 1 C-2 0 -2 0 0 0 Z " fill="#2E2D2A" transform="translate(970,448)"/>
<path d="M0 0 C2.97 0.495 2.97 0.495 6 1 C5.67 2.65 5.34 4.3 5 6 C4.67 5.34 4.34 4.68 4 4 C3.34 4 2.68 4 2 4 C2 4.99 2 5.98 2 7 C0.35 7.33 -1.3 7.66 -3 8 C-2.67 7.01 -2.34 6.02 -2 5 C-3.32 5 -4.64 5 -6 5 C-5.34 3.68 -4.68 2.36 -4 1 C-3.01 1.33 -2.02 1.66 -1 2 C-0.67 1.34 -0.34 0.68 0 0 Z " fill="#8B5116" transform="translate(1025,907)"/>
<path d="M0 0 C2.11328125 0.39453125 2.11328125 0.39453125 4 1 C2.27744283 2.46613447 0.54666216 3.92261056 -1.1875 5.375 C-2.15042969 6.18710937 -3.11335938 6.99921875 -4.10546875 7.8359375 C-6.73115596 9.79900189 -8.91175041 10.9724654 -12 12 C-11.9375 10.25 -11.9375 10.25 -11 8 C-9.28311824 6.96339214 -7.5584297 5.9338844 -5.7734375 5.01953125 C-3.77434488 3.9832605 -3.77434488 3.9832605 -1.8125 1.6875 C-1.214375 1.130625 -0.61625 0.57375 0 0 Z " fill="#81501F" transform="translate(1062,904)"/>
<path d="M0 0 C2.475 0.495 2.475 0.495 5 1 C5 1.99 5 2.98 5 4 C6.32 3.67 7.64 3.34 9 3 C9 5.31 9 7.62 9 10 C6.51339545 9.6121322 5.27654781 9.29037521 3.515625 7.44140625 C3.09796875 6.82136719 2.6803125 6.20132813 2.25 5.5625 C1.82203125 4.94503906 1.3940625 4.32757812 0.953125 3.69140625 C0 2 0 2 0 0 Z " fill="#835624" transform="translate(970,892)"/>
<path d="M0 0 C6.01784588 5.49674749 6.54229579 13.29794297 7 21 C5 20 5 20 4.21875 18.1796875 C3.9815625 17.41914062 3.744375 16.65859375 3.5 15.875 C3.24605469 15.06417969 2.99210937 14.25335937 2.73046875 13.41796875 C2.48941406 12.62003906 2.24835938 11.82210937 2 11 C1.608125 9.741875 1.21625 8.48375 0.8125 7.1875 C0 4 0 4 0 0 Z " fill="#B38246" transform="translate(1073,830)"/>
<path d="M0 0 C0.66 0.33 1.32 0.66 2 1 C0 4 0 4 -3 5 C-3.845625 5.845625 -4.69125 6.69125 -5.5625 7.5625 C-6.366875 8.366875 -7.17125 9.17125 -8 10 C-8.66 10 -9.32 10 -10 10 C-10 10.99 -10 11.98 -10 13 C-11.32 13.33 -12.64 13.66 -14 14 C-14 14.66 -14 15.32 -14 16 C-14.66 15.67 -15.32 15.34 -16 15 C-11.24156903 9.10933786 -6.12530771 4.44466773 0 0 Z " fill="#B38752" transform="translate(990,810)"/>
<path d="M0 0 C-0.99 0 -1.98 0 -3 0 C-3.33 1.32 -3.66 2.64 -4 4 C-8.53701494 5.45184478 -12.18061476 6.23509196 -17 6 C-14.64350301 3.31127557 -12.36421235 2.0806149 -9.0625 0.75 C-8.20785156 0.39421875 -7.35320313 0.0384375 -6.47265625 -0.328125 C-3.82854634 -1.04658772 -2.54131429 -0.91982605 0 0 Z " fill="#B18653" transform="translate(1009,804)"/>
<path d="M0 0 C1 2 1 2 0.51171875 3.91015625 C0.10373047 4.97556641 0.10373047 4.97556641 -0.3125 6.0625 C-0.70888672 7.13177734 -0.70888672 7.13177734 -1.11328125 8.22265625 C-2 10 -2 10 -4 11 C-4.73075648 13.3140622 -5.40138258 15.64828869 -6 18 C-6.66 18 -7.32 18 -8 18 C-8.33 18.99 -8.66 19.98 -9 21 C-9.66 21 -10.32 21 -11 21 C-9.3003494 16.26525903 -6.86340973 12.03832889 -4.375 7.6875 C-3.95476563 6.94693359 -3.53453125 6.20636719 -3.1015625 5.44335938 C-2.07051505 3.62730989 -1.03563954 1.81343467 0 0 Z " fill="#C5C3BB" transform="translate(740,580)"/>
<path d="M0 0 C0.66 0.66 1.32 1.32 2 2 C1.86328125 4.05859375 1.86328125 4.05859375 1.3125 6.4375 C1.14363281 7.21996094 0.97476563 8.00242187 0.80078125 8.80859375 C-0.08580972 11.23482563 -1.10866932 12.28690991 -3 14 C-4.17574711 16.09989652 -4.17574711 16.09989652 -5 18 C-5.66 18 -6.32 18 -7 18 C-5.64474464 13.78224268 -4.09799886 9.70578678 -2.375 5.625 C-1.92898438 4.56539062 -1.48296875 3.50578125 -1.0234375 2.4140625 C-0.68570313 1.61742187 -0.34796875 0.82078125 0 0 Z " fill="#C8C5BC" transform="translate(737,867)"/>
<path d="M0 0 C1.98508922 3.66370852 2.37432119 6.57201984 2.625 10.75 C2.69976562 11.92046875 2.77453125 13.0909375 2.8515625 14.296875 C2.90054687 15.18890625 2.94953125 16.0809375 3 17 C2.67 17 2.34 17 2 17 C1.34 18.98 0.68 20.96 0 23 C-0.88099735 20.02181366 -1.06705164 17.54707135 -0.87890625 14.453125 C-0.83056641 13.60878906 -0.78222656 12.76445312 -0.73242188 11.89453125 C-0.64831055 10.58548828 -0.64831055 10.58548828 -0.5625 9.25 C-0.51029297 8.36183594 -0.45808594 7.47367187 -0.40429688 6.55859375 C-0.27498267 4.37200804 -0.14003358 2.18592106 0 0 Z " fill="#C6C3BB" transform="translate(434,466)"/>
<path d="M0 0 C2.97 0 5.94 0 9 0 C7.92598892 2.91517292 7.22189824 4.77810176 5 7 C3.0625 6.3125 3.0625 6.3125 1 5 C0.25 2.375 0.25 2.375 0 0 Z " fill="#8E5519" transform="translate(1006,907)"/>
<path d="M0 0 C2.6875 -0.375 2.6875 -0.375 6 0 C8.33977608 1.80800879 9.36642107 3.42587563 11 6 C10.8125 8.375 10.8125 8.375 10 10 C9.01 9.67 8.02 9.34 7 9 C7 8.34 7 7.68 7 7 C6.34 6.67 5.68 6.34 5 6 C5 5.34 5 4.68 5 4 C3.35 3.67 1.7 3.34 0 3 C0 2.01 0 1.02 0 0 Z " fill="#BA8748" transform="translate(1062,822)"/>
<path d="M0 0 C1.2684375 0.12375 1.2684375 0.12375 2.5625 0.25 C4.5625 3.25 4.5625 3.25 4.5625 7.25 C3.9025 7.25 3.2425 7.25 2.5625 7.25 C2.5625 6.59 2.5625 5.93 2.5625 5.25 C0.9125 5.58 -0.7375 5.91 -2.4375 6.25 C-2.81968767 4.59385343 -3.15145102 2.92542976 -3.4375 1.25 C-2.4375 0.25 -2.4375 0.25 0 0 Z " fill="#C98B42" transform="translate(1008.4375,839.75)"/>
<path d="M0 0 C0.144375 0.598125 0.28875 1.19625 0.4375 1.8125 C0.8872439 3.56150404 1.42892341 5.28677023 2 7 C2.34227417 8.33106622 2.67751743 9.66400079 3 11 C2.01 11.33 1.02 11.66 0 12 C-1.01754868 13.8653245 -1.01754868 13.8653245 -1.6875 16.0625 C-1.93886719 16.79597656 -2.19023438 17.52945313 -2.44921875 18.28515625 C-2.63097656 18.85105469 -2.81273437 19.41695312 -3 20 C-4.37344385 15.60155678 -3.24307502 12.07495445 -2.0625 7.75 C-1.86720703 7.00492187 -1.67191406 6.25984375 -1.47070312 5.4921875 C-0.98895802 3.65920614 -0.49560775 1.82928182 0 0 Z " fill="#C0BDB5" transform="translate(812,502)"/>
<path d="M0 0 C1.2870655 3.57887246 0.7233248 5.58526266 -0.6875 9.0625 C-1.18830078 10.34833984 -1.18830078 10.34833984 -1.69921875 11.66015625 C-3.13161427 14.23674758 -4.54123418 15.42121352 -7 17 C-7.66 16.67 -8.32 16.34 -9 16 C-8.51789063 15.26394531 -8.03578125 14.52789063 -7.5390625 13.76953125 C-6.90742187 12.79371094 -6.27578125 11.81789063 -5.625 10.8125 C-4.99851562 9.84957031 -4.37203125 8.88664063 -3.7265625 7.89453125 C-2.18011688 5.30196064 -1.02491925 2.83146884 0 0 Z " fill="#231208" transform="translate(1077,885)"/>
<path d="M0 0 C0.33 0 0.66 0 1 0 C1.05398987 2.27057377 1.09278742 4.54151288 1.125 6.8125 C1.14820313 8.07707031 1.17140625 9.34164062 1.1953125 10.64453125 C1 14 1 14 -1 17 C-1.66 17 -2.32 17 -3 17 C-2.36934845 11.2190275 -1.34844868 5.6556294 0 0 Z " fill="#C2BFB7" transform="translate(805,535)"/>
<path d="M0 0 C0.99 0 1.98 0 3 0 C2.69078116 1.45903258 2.37751201 2.91720722 2.0625 4.375 C1.88847656 5.18710937 1.71445313 5.99921875 1.53515625 6.8359375 C1 9 1 9 0 11 C-0.99 11 -1.98 11 -3 11 C-3.33 9.02 -3.66 7.04 -4 5 C-2.02 5.99 -2.02 5.99 0 7 C0 4.69 0 2.38 0 0 Z " fill="#9B682F" transform="translate(1078,873)"/>
<path d="M0 0 C1 2 1 2 0.44140625 3.9453125 C0.15136719 4.66460938 -0.13867188 5.38390625 -0.4375 6.125 C-0.72496094 6.84945312 -1.01242187 7.57390625 -1.30859375 8.3203125 C-1.53675781 8.87460937 -1.76492188 9.42890625 -2 10 C-2.66 10 -3.32 10 -4 10 C-4.33 11.32 -4.66 12.64 -5 14 C-5.66 14 -6.32 14 -7 14 C-5.53967505 8.68972746 -3.01679014 4.53669968 0 0 Z " fill="#C2BFB6" transform="translate(684,678)"/>
<path d="M0 0 C2.33944736 0.28730055 4.6739143 0.61936779 7 1 C7 1.33 7 1.66 7 2 C2.37540756 3.17700048 -2.07866462 3.11408412 -6.8125 3.0625 C-7.99489258 3.05573242 -7.99489258 3.05573242 -9.20117188 3.04882812 C-11.13414761 3.03711312 -13.06708393 3.01917998 -15 3 C-15 2.67 -15 2.34 -15 2 C-14.00097656 1.93941406 -13.00195312 1.87882813 -11.97265625 1.81640625 C-10.68230469 1.73261719 -9.39195312 1.64882813 -8.0625 1.5625 C-6.77472656 1.48128906 -5.48695313 1.40007813 -4.16015625 1.31640625 C-1.13976043 1.35080812 -1.13976043 1.35080812 0 0 Z " fill="#86521D" transform="translate(1027,919)"/>
<path d="M0 0 C4.95 0.99 4.95 0.99 10 2 C9.01 3.485 9.01 3.485 8 5 C2.25 4.125 2.25 4.125 0 3 C0 2.01 0 1.02 0 0 Z " fill="#A56A29" transform="translate(995,882)"/>
<path d="M0 0 C-3.12493704 3.12493704 -5.91645015 3.95911133 -10.3125 4.125 C-11.199375 4.08375 -12.08625 4.0425 -13 4 C-8.62340682 -0.37659318 -5.88808394 -0.39919213 0 0 Z " fill="#130601" transform="translate(1007,802)"/>
<path d="M0 0 C1 3 1 3 -0.21484375 5.48046875 C-0.78332031 6.37378906 -1.35179687 7.26710938 -1.9375 8.1875 C-2.50339844 9.08855469 -3.06929687 9.98960937 -3.65234375 10.91796875 C-4.09707031 11.60503906 -4.54179688 12.29210937 -5 13 C-5.68359375 11.296875 -5.68359375 11.296875 -6 9 C-4.78515625 6.640625 -4.78515625 6.640625 -3.0625 4.25 C-2.49660156 3.45078125 -1.93070313 2.6515625 -1.34765625 1.828125 C-0.90292969 1.22484375 -0.45820312 0.6215625 0 0 Z " fill="#E8E4DA" transform="translate(801,511)"/>
<path d="M0 0 C1.13508688 3.3515741 0.87309359 5.35675676 -0.25 8.6875 C-0.50265625 9.47511719 -0.7553125 10.26273438 -1.015625 11.07421875 C-2 13 -2 13 -5 14 C-3.46527032 9.27775484 -1.76054874 4.64144669 0 0 Z " fill="#C3C0B7" transform="translate(363,863)"/>
<path d="M0 0 C0.99 0.33 1.98 0.66 3 1 C2.67 1.99 2.34 2.98 2 4 C2.66 4 3.32 4 4 4 C4 6.97 4 9.94 4 13 C0 5 0 5 0 0 Z " fill="#CBC8BF" transform="translate(525,829)"/>
<path d="M0 0 C8.86956522 0.73913043 8.86956522 0.73913043 12 4 C12 4.66 12 5.32 12 6 C7.96479403 4.41037341 3.98188718 2.71767682 0 1 C0 0.67 0 0.34 0 0 Z " fill="#2F1B0E" transform="translate(1044,805)"/>
<path d="M0 0 C1.3271261 3.9813783 1.06915913 7.85045227 1 12 C0.01 12.33 -0.98 12.66 -2 13 C-1.85851011 11.3954444 -1.71164314 9.79136233 -1.5625 8.1875 C-1.48128906 7.29417969 -1.40007813 6.40085937 -1.31640625 5.48046875 C-1 3 -1 3 0 0 Z " fill="#BFBDB5" transform="translate(740,854)"/>
<path d="M0 0 C0.99 0.33 1.98 0.66 3 1 C3.33 3.97 3.66 6.94 4 10 C1.16625119 6.79663178 0.4794463 4.21912747 0 0 Z " fill="#26160B" transform="translate(1076,833)"/>
<path d="M0 0 C0.66 0 1.32 0 2 0 C0.84414715 3.91211733 -0.35534962 6.8745041 -3 10 C-2.25 3.375 -2.25 3.375 0 0 Z " fill="#170903" transform="translate(968,830)"/>
<path d="M0 0 C1.46067199 0.45082469 2.91848032 0.91093537 4.375 1.375 C5.18710938 1.63023437 5.99921875 1.88546875 6.8359375 2.1484375 C9 3 9 3 11 5 C10.01 5.33 9.02 5.66 8 6 C8 5.34 8 4.68 8 4 C7.2575 4.061875 6.515 4.12375 5.75 4.1875 C2.54616994 3.96905704 1.35968744 3.09749995 -1 1 C-0.67 0.67 -0.34 0.34 0 0 Z " fill="#BF925C" transform="translate(1040,804)"/>
<path d="M0 0 C-0.99 0 -1.98 0 -3 0 C-3.33 1.32 -3.66 2.64 -4 4 C-5.32 4 -6.64 4 -8 4 C-7.6875 2.0625 -7.6875 2.0625 -7 0 C-3.86650268 -1.04449911 -3.01031744 -0.93423645 0 0 Z " fill="#BF9057" transform="translate(1009,804)"/>
<path d="M0 0 C2.22825644 2.22825644 2.69239369 3.65761628 3.625 6.625 C4.01558594 7.85089844 4.01558594 7.85089844 4.4140625 9.1015625 C4.60742188 9.72804688 4.80078125 10.35453125 5 11 C4.01 11 3.02 11 2 11 C0 3.375 0 3.375 0 0 Z " fill="#935E27" transform="translate(967,881)"/>
<path d="M0 0 C0.66 0 1.32 0 2 0 C2 0.66 2 1.32 2 2 C2.66 2 3.32 2 4 2 C3.67 3.32 3.34 4.64 3 6 C0.525 5.01 0.525 5.01 -2 4 C-1.34 2.68 -0.68 1.36 0 0 Z " fill="#A36927" transform="translate(975,875)"/>
<path d="M0 0 C0 2.31 0 4.62 0 7 C-0.66 7 -1.32 7 -2 7 C-2.66 5.02 -3.32 3.04 -4 1 C-1 0 -1 0 0 0 Z " fill="#925B1F" transform="translate(979,895)"/>
<path d="M0 0 C3.96 1.98 3.96 1.98 8 4 C7.01 4.66 6.02 5.32 5 6 C5 5.34 5 4.68 5 4 C3.35 4 1.7 4 0 4 C0 2.68 0 1.36 0 0 Z " fill="#D4D0C7" transform="translate(406,893)"/>
<path d="M0 0 C0.66 0.33 1.32 0.66 2 1 C0.515 3.475 0.515 3.475 -1 6 C-2.32 5.67 -3.64 5.34 -5 5 C-4.67 4.34 -4.34 3.68 -4 3 C-3.34 3 -2.68 3 -2 3 C-1.34 2.01 -0.68 1.02 0 0 Z " fill="#C88B41" transform="translate(1026,842)"/>
<path d="M0 0 C0.66 0 1.32 0 2 0 C2 0.66 2 1.32 2 2 C2.99 2.33 3.98 2.66 5 3 C6.1875 5.5625 6.1875 5.5625 7 8 C6.01 8 5.02 8 4 8 C2.68 5.36 1.36 2.72 0 0 Z " fill="#1B0D05" transform="translate(1070,824)"/>
<path d="M0 0 C0.33 0.66 0.66 1.32 1 2 C0.67 2.99 0.34 3.98 0 5 C-2.0625 5.6875 -2.0625 5.6875 -4 6 C-4 6.66 -4 7.32 -4 8 C-4.66 7.67 -5.32 7.34 -6 7 C-4.02 4.69 -2.04 2.38 0 0 Z " fill="#9D7446" transform="translate(980,818)"/>
<path d="M0 0 C1 2 1 2 0.25 5.0625 C-0.1625 6.031875 -0.575 7.00125 -1 8 C-1.99 8.33 -2.98 8.66 -4 9 C-2.94124926 5.59687262 -1.99097846 2.98646769 0 0 Z " fill="#C3C0B7" transform="translate(647,743)"/>
<path d="M0 0 C0.66 0 1.32 0 2 0 C0.125 4.75 0.125 4.75 -1 7 C-1.66 7 -2.32 7 -3 7 C-2.25 2.25 -2.25 2.25 0 0 Z " fill="#EAE5DB" transform="translate(698,690)"/>
<path d="M0 0 C2.64 0.33 5.28 0.66 8 1 C8.33 1.99 8.66 2.98 9 4 C6.03 3.01 3.06 2.02 0 1 C0 0.67 0 0.34 0 0 Z " fill="#71461E" transform="translate(992,915)"/>
</svg>
